<?xml version="1.0" encoding="utf-8"?>
<!-- Generator: Adobe Illustrator 19.2.1, SVG Export Plug-In . SVG Version: 6.00 Build 0)  -->
<svg version="1.1" id="Layer_1" xmlns="http://www.w3.org/2000/svg" xmlns:xlink="http://www.w3.org/1999/xlink" x="0px" y="0px"
	 viewBox="0 0 60 54" style="enable-background:new 0 0 60 54;" xml:space="preserve">
<style type="text/css">
	.st0{fill:#DDDCDC;}
</style>
<g>
	<path class="st0" d="M29.9,41.4c1.7,0,15.5-16.9,15.5-25.4c0.1-8.5-6.9-15.3-15.5-15.3c-8.5,0-15.5,6.8-15.5,15.3
		S28.3,41.4,29.9,41.4z M20,15.5c0-5.5,4.5-9.9,9.9-9.9c5.6,0,10,4.5,10,9.9s-4.5,9.8-10,9.8C24.4,25.3,20,21,20,15.5z"/>
	<path class="st0" d="M57.5,29.7c0-1.4-1.2-2.5-2.6-2.5c0,0-6.9,0-9.4,0c-0.2,0-0.4,0-0.7,0.4c-0.5,0.8-0.5,0.8-0.9,1.6
		c-0.2,0.4,0.1,0.5,0.3,0.5c3,0,10.8,0,10.8,0c0.1,0,0.2,0.1,0.2,0.2l2.3,20.9c0,0.1-0.1,0.2-0.2,0.2H2.6c-0.1,0-0.2-0.1-0.2-0.2
		l2.4-21c0-0.1,0.1-0.2,0.2-0.2c0,0,8,0,10.7,0c0.2,0,0.6-0.1,0.2-0.8c-0.5-0.8-0.3-0.5-0.8-1.4c-0.2-0.3-0.5-0.3-0.8-0.3
		c-2.3,0-9.4,0-9.4,0c-1.5,0-2.6,1.2-2.6,2.5L0,50.8c0,1.4,1.2,2.5,2.6,2.5h54.7c1.5,0,2.6-1.2,2.6-2.5L57.5,29.7z"/>
</g>
</svg>
