<svg xmlns="http://www.w3.org/2000/svg" width="24" height="24" viewBox="0 0 24 24">
    <path fill="#262626" fill-rule="evenodd" d="M5.916 4.384c3.168-3.179 8.305-3.179 11.472 0l.236.243c2.972 3.191 2.908 8.197-.194 11.31l-5.778 5.799-5.777-5.799C2.708 12.758 2.708 7.604 5.87 4.43zm10.764.706c-2.777-2.787-7.278-2.787-10.052-.003l-.23.238c-2.591 2.8-2.53 7.18.185 9.906l5.069 5.087 5.07-5.087c2.715-2.725 2.777-7.106.186-9.906zm-5.028 2.548c1.385 0 2.507 1.126 2.507 2.514s-1.122 2.514-2.507 2.514c-1.384 0-2.506-1.126-2.506-2.514 0-1.387 1.122-2.514 2.506-2.514zm0 1c-.83 0-1.506.678-1.506 1.514s.675 1.514 1.506 1.514c.832 0 1.507-.677 1.507-1.514 0-.836-.675-1.514-1.507-1.514z"/>
</svg>
