<?xml version="1.0" encoding="UTF-8"?>
<svg width="13px" height="24px" viewBox="0 0 13 24" version="1.1" xmlns="http://www.w3.org/2000/svg" xmlns:xlink="http://www.w3.org/1999/xlink">
    <!-- Generator: Sketch 62 (91390) - https://sketch.com -->
    <title>Shape</title>
    <desc>Created with Sketch.</desc>
    <g id="Symbols" stroke="none" stroke-width="1" fill="none" fill-rule="evenodd">
        <g id="social_media" fill="#757575">
            <g id="Group">
                <path d="M2.81308411,4.63972907 C2.81308411,4.49001744 2.8411215,4.16777226 2.87850467,3.67299355 C2.95066518,3.11241988 3.16245729,2.57768273 3.4953271,2.11562736 C3.9426462,1.49275857 4.54379548,0.990350974 5.24299065,0.65502601 C6.33140833,0.168580645 7.52443059,-0.052578959 8.71962617,0.0105356628 L13,0.0105356628 L13,4.33391567 L9.86915888,4.33391567 C9.55252424,4.33672966 9.24743389,4.45042516 9.00934579,4.65433509 C8.79487084,4.79012234 8.65157061,5.01041222 8.61682243,5.25774602 L8.61682243,7.94799114 L13,7.94799114 C12.953271,8.47380762 12.8971963,8.98593097 12.8411215,9.48070968 L12.6728972,10.787035 C12.5981308,11.227954 12.5327103,11.6369224 12.4579439,12.0139402 L8.58878505,12.0139402 L8.58878505,24 L2.81308411,24 L2.81308411,12.0130273 L0,12.0130273 L0,7.94799114 L2.81308411,7.94799114 L2.81308411,4.63972907 L2.81308411,4.63972907 Z" id="Shape"></path>
            </g>
        </g>
    </g>
</svg>