<?xml version="1.0" encoding="UTF-8"?>
<svg width="24px" height="24px" viewBox="0 0 24 24" version="1.1" xmlns="http://www.w3.org/2000/svg" xmlns:xlink="http://www.w3.org/1999/xlink">
    <!-- Generator: Sketch 62 (91390) - https://sketch.com -->
    <title>Fill 1</title>
    <desc>Created with Sketch.</desc>
    <g id="Symbols" stroke="none" stroke-width="1" fill="none" fill-rule="evenodd">
        <g id="social_media" transform="translate(-113.000000, 0.000000)" fill="#757575">
            <g id="Group">
                <path d="M124.985654,-1.42108547e-14 C121.730563,-1.42108547e-14 121.32235,0.0137973942 120.043998,0.0721270678 C118.768215,0.13031401 117.896981,0.332945396 117.134556,0.629256331 C116.346439,0.935510906 115.677979,1.34534109 115.01166,2.01166008 C114.345294,2.67802664 113.935511,3.34643903 113.629209,4.1345557 C113.332898,4.89698068 113.130314,5.76821476 113.072079,7.04399795 C113.01375,8.32239789 113,8.7305153 113,11.9856536 C113,15.240792 113.01375,15.648957 113.072079,16.9273569 C113.130314,18.2030925 113.332898,19.0743742 113.629209,19.8367516 C113.935511,20.6248682 114.345294,21.2933282 115.01166,21.9596472 C115.677979,22.6260138 116.346439,23.0357964 117.134556,23.3421461 C117.896981,23.6384095 118.768215,23.8410408 120.043998,23.8992754 C121.32235,23.9575575 121.730563,23.9713549 124.985654,23.9713549 C128.240792,23.9713549 128.648909,23.9575575 129.927309,23.8992754 C131.203093,23.8410408 132.074327,23.6384095 132.836752,23.3421461 C133.624916,23.0357964 134.293328,22.6260138 134.959647,21.9596472 C135.626014,21.2933282 136.035796,20.6249158 136.342099,19.8367516 C136.638409,19.0743742 136.841041,18.2030925 136.899228,16.9273569 C136.957557,15.648957 136.971355,15.240792 136.971355,11.9856536 C136.971355,8.73056288 136.957557,8.32239789 136.899228,7.04399795 C136.841041,5.76821476 136.638409,4.89698068 136.342099,4.1345557 C136.035796,3.34643903 135.626014,2.67802664 134.959647,2.01166008 C134.293328,1.34534109 133.624916,0.935510906 132.836752,0.629256331 C132.074327,0.332945396 131.203093,0.13031401 129.927309,0.0721270678 C128.648909,0.0137973942 128.240792,-1.42108547e-14 124.985654,-1.42108547e-14 M124.985654,2.15957766 C128.185983,2.15957766 128.565031,2.17175743 129.828872,2.22942102 C130.997464,2.28275509 131.632096,2.478012 132.054439,2.64215342 C132.6139,2.85958132 133.013215,3.11930537 133.432609,3.53869858 C133.852002,3.95813936 134.111726,4.35740741 134.329201,4.91686795 C134.493295,5.33921095 134.688552,5.97384351 134.741886,7.14243522 C134.799502,8.40627653 134.81173,8.78537183 134.81173,11.9856536 C134.81173,15.185983 134.799502,15.5650783 134.741886,16.8288721 C134.688552,17.9975113 134.493295,18.6321439 134.329201,19.0544869 C134.111726,19.6138999 133.852002,20.0132155 133.432609,20.4326087 C133.013215,20.8520495 132.6139,21.1117735 132.054439,21.3292014 C131.632096,21.4932953 130.997464,21.6885998 129.828872,21.7418863 C128.565221,21.7995498 128.186221,21.8117772 124.985654,21.8117772 C121.785086,21.8117772 121.406086,21.7995498 120.142435,21.7418863 C118.973844,21.6885998 118.339163,21.4932953 117.91682,21.3292014 C117.357407,21.1117735 116.958092,20.8520495 116.538699,20.4326087 C116.119305,20.0132155 115.859534,19.6138999 115.642106,19.0544869 C115.478012,18.6321439 115.282755,17.9975113 115.229421,16.8289196 C115.171757,15.5650783 115.159578,15.185983 115.159578,11.9856536 C115.159578,8.78537183 115.171757,8.40627653 115.229421,7.14243522 C115.282755,5.97384351 115.478012,5.33921095 115.642106,4.91686795 C115.859534,4.35740741 116.119305,3.95813936 116.538699,3.53874616 C116.958092,3.11930537 117.357407,2.85958132 117.91682,2.64215342 C118.339163,2.478012 118.973844,2.28275509 120.142388,2.22942102 C121.406277,2.17175743 121.785324,2.15957766 124.985654,2.15957766 M124.985654,15.9809032 C122.779165,15.9809032 120.990404,14.1921424 120.990404,11.9856536 C120.990404,9.77916484 122.779165,7.99045162 124.985654,7.99045162 C127.192142,7.99045162 128.980903,9.77916484 128.980903,11.9856536 C128.980903,14.1921424 127.192142,15.9809032 124.985654,15.9809032 M124.985654,5.83087396 C121.586451,5.83087396 118.830826,8.58645147 118.830826,11.9856536 C118.830826,15.3849034 121.586451,18.1404809 124.985654,18.1404809 C128.384856,18.1404809 131.140433,15.3849034 131.140433,11.9856536 C131.140433,8.58645147 128.384856,5.83087396 124.985654,5.83087396 M132.821912,5.58769726 C132.821912,6.38204655 132.178002,7.02595667 131.383653,7.02595667 C130.589304,7.02595667 129.945346,6.38204655 129.945346,5.58769726 C129.945346,4.79334797 130.589304,4.14943786 131.383653,4.14943786 C132.178002,4.14943786 132.821912,4.79334797 132.821912,5.58769726" id="Fill-1"></path>
            </g>
        </g>
    </g>
</svg>