<?xml version="1.0" encoding="UTF-8"?>
<svg width="25px" height="24px" viewBox="0 0 25 24" version="1.1" xmlns="http://www.w3.org/2000/svg" xmlns:xlink="http://www.w3.org/1999/xlink">
    <!-- Generator: Sketch 62 (91390) - https://sketch.com -->
    <title>Shape</title>
    <desc>Created with Sketch.</desc>
    <g id="Symbols" stroke="none" stroke-width="1" fill="none" fill-rule="evenodd">
        <g id="social_media" transform="translate(-171.000000, 0.000000)" fill="#757575">
            <g id="Group">
                <path d="M196,14.7172266 L196,23.9962441 L190.639814,23.9962441 L190.639814,15.3388325 C190.639814,13.1641508 189.866179,11.6768037 187.922882,11.6768037 C186.692523,11.6808641 185.595917,12.4687327 185.178319,13.6486653 C185.03508,14.0708281 184.972552,14.5170733 184.99412,14.9632398 L184.99412,24 L179.643145,24 C179.643145,24 179.707614,9.3378002 179.643145,7.81852775 L184.99412,7.81852775 L184.99412,10.1124601 C184.98491,10.1293618 184.975701,10.1481414 184.966491,10.1641041 L184.99412,10.1641041 L184.99412,10.1087042 C185.998963,8.37656654 187.857261,7.34879573 189.829339,7.43448422 C193.356747,7.43448422 196,9.75189114 196,14.7172266 Z M174.034291,0.0146505413 C172.997529,-0.0935866807 171.989662,0.404162522 171.430282,1.30067688 C170.870902,2.19719124 170.855861,3.33884812 171.391421,4.25035678 C171.926982,5.16186544 172.921372,5.68703388 173.960611,5.60722576 L173.997451,5.60722576 C175.037707,5.71336283 176.047244,5.2099863 176.603746,4.3076721 C177.160248,3.40535789 177.167795,2.25962971 176.623231,1.34977641 C176.078666,0.439923115 175.075851,-0.077232155 174.034291,0.0146505413 L174.034291,0.0146505413 Z M171.317358,23.9962441 L176.677544,23.9962441 L176.677544,7.81477182 L171.317358,7.81477182 L171.317358,23.9962441 Z" id="Shape"></path>
            </g>
        </g>
    </g>
</svg>