<svg xmlns="http://www.w3.org/2000/svg" width="16" height="16" viewBox="0 0 16 16">
    <path fill="#000" fill-opacity=".7" fill-rule="evenodd" d="M8 13.09A5.06 5.06 0 0 1 2.909 8 5.06 5.06 0 0 1 8 2.91 5.06 5.06 0 0 1 13.09 8 5.06 5.06 0 0 1 8 13.09zm6.473-5.817c-.364-3.055-2.764-5.455-5.745-5.745V0H7.273v1.528a6.363 6.363 0 0 0-5.746 5.745H0v1.454h1.527c.364 3.055 2.764 5.455 5.746 5.746V16h1.455v-1.527c3.054-.364 5.454-2.764 5.745-5.746H16V7.273h-1.527zM8 5.091c-1.6 0-2.909 1.31-2.909 2.91S6.401 10.908 8 10.908c1.6 0 2.909-1.309 2.909-2.909C10.909 6.4 9.6 5.091 8 5.091z"/>
</svg>
