<?xml version="1.0" encoding="utf-8"?>
<!-- Generator: Adobe Illustrator 19.1.0, SVG Export Plug-In . SVG Version: 6.00 Build 0)  -->
<svg version="1.1" id="Layer_1" xmlns="http://www.w3.org/2000/svg" xmlns:xlink="http://www.w3.org/1999/xlink" x="0px" y="0px"
	 viewBox="0 0 36.5 68.3" style="enable-background:new 0 0 36.5 68.3;" xml:space="preserve">
<style type="text/css">
	.st0{fill:#F68B2D;}
</style>
<path class="st0" d="M32.5,5.1c-5.3,1.7-10,3.8-13.9,8.1c-3.8,4.1-6.5,9.5-8,15.2c-3.1,11.9-0.2,26.6,8.3,35.7
	c0.8,0.9,2.1-0.2,1.4-1.3c-5.9-10.1-9.1-21.5-6.3-32.9c2.4-10,10-19.7,18.8-23.5C33.6,6.1,33.2,4.8,32.5,5.1L32.5,5.1z"/>
<path class="st0" d="M21.2,63.7c-2.3-2.2-5.1-3.8-7.7-5.5c-2.4-1.6-6.2-3.1-7.8-5.7c-1.3-2.2-4.3-0.2-3,2c1.6,2.8,4.5,4,7.1,5.5
	c3.4,2,6.9,4.4,10.5,5.6C21.3,65.9,22,64.5,21.2,63.7L21.2,63.7z"/>
<path class="st0" d="M21.1,66.1c1.3-2,0.3-5.1,0-7.5c-0.4-2.9-0.8-5.9-1.8-8.6c-0.5-1.6-3.1-1.4-2.8,0.4c0.5,2.9,1.3,5.7,1.8,8.6
	c0.4,2.4,0.2,5.4,1.9,7.2C20.5,66.6,20.9,66.5,21.1,66.1L21.1,66.1z"/>
</svg>
