<?xml version="1.0" encoding="utf-8"?>
<!-- Generator: Adobe Illustrator 25.2.0, SVG Export Plug-In . SVG Version: 6.00 Build 0)  -->
<svg version="1.1" id="Layer_1" xmlns="http://www.w3.org/2000/svg" xmlns:xlink="http://www.w3.org/1999/xlink" x="0px" y="0px"
	 viewBox="0 0 370 131.25" style="enable-background:new 0 0 370 131.25;" xml:space="preserve">
<style type="text/css">
	.st0{fill:#FF5A00;}
</style>
<g>
	<path class="st0" d="M55.81,83.02c-1.05,0.36-2.17,0.56-3.34,0.56c-3.65,0-5.41-1.92-7.01-4.8c-0.53-0.91-0.82-2.91-0.82-2.91
		V60.08h13.5l-0.71-6.3c-0.35-3.1-2.98-5.45-6.1-5.45h-6.68V37.6V28.8c0,0-4.04,0.27-5.39,0.37c-6.91,0.54-11.58,5.14-11.58,10.52
		l0.03,9.08l-11.95,0.44v4.54c0,3.49,2.83,6.32,6.31,6.32h5.63v16.17l0.08,2.36C27.83,88.67,36,96.8,46.08,96.8
		c3.58,0,6.92-1.03,9.74-2.81V83.02z"/>
	<path class="st0" d="M168.79,84.77c1.71-0.79,3.02-1.83,3.91-3.1v-4c-2.73-1.84-5.85-2.76-9.34-2.76c-2.23,0-3.94,0.48-5.15,1.43
		c-1.21,0.95-1.81,2.35-1.81,4.19c0,1.72,0.59,3.05,1.76,4c1.18,0.95,2.87,1.43,5.1,1.43C165.23,85.96,167.07,85.57,168.79,84.77
		 M144.43,92.11c-3.53-2.76-5.29-6.62-5.29-11.58c0-5.15,1.7-9.1,5.1-11.87c3.4-2.76,8.28-4.15,14.63-4.15
		c2.48,0,4.96,0.27,7.44,0.81c2.48,0.54,4.61,1.26,6.39,2.14v-0.95c0-4.89-4-7.34-12.01-7.34c-5.59,0-9.02,0.35-13.66,2.51
		c0,0-0.63-4.63-0.78-6.19c-0.34-3.48,2.4-6.08,7-6.92c0.03-0.01,0.07-0.01,0.1-0.02c3.3-0.6,6.73-0.91,10.29-0.91
		c8.52,0,14.95,1.7,19.31,5.1c4.35,3.4,6.53,8.15,6.53,14.25v20.92c0,5.61-1.96,6.91-6.6,6.91h-8.69l-0.44-3.91
		c-1.71,1.65-3.88,2.95-6.48,3.91c-2.61,0.95-5.59,1.43-8.96,1.43C152.58,96.26,147.96,94.88,144.43,92.11"/>
	<path class="st0" d="M287.61,84.77c1.71-0.79,3.02-1.83,3.91-3.1v-4c-2.73-1.84-5.85-2.76-9.34-2.76c-2.23,0-3.94,0.48-5.15,1.43
		c-1.21,0.95-1.81,2.35-1.81,4.19c0,1.72,0.59,3.05,1.76,4c1.18,0.95,2.87,1.43,5.1,1.43C284.05,85.96,285.9,85.57,287.61,84.77
		 M263.26,92.11c-3.53-2.76-5.29-6.62-5.29-11.58c0-5.15,1.7-9.1,5.1-11.87c3.4-2.76,8.28-4.15,14.63-4.15
		c2.48,0,4.96,0.27,7.44,0.81c2.48,0.54,4.61,1.26,6.39,2.14v-0.95c0-4.89-4-7.34-12.01-7.34c-5.59,0-9.02,0.35-13.66,2.51
		c0,0-0.63-4.63-0.78-6.19c-0.34-3.48,2.4-6.08,7-6.92c0.03-0.01,0.06-0.01,0.1-0.02c3.3-0.6,6.73-0.91,10.29-0.91
		c8.52,0,14.95,1.7,19.31,5.1c4.35,3.4,6.53,8.15,6.53,14.25v20.92c0,5.61-1.96,6.91-6.6,6.91h-8.69l-0.44-3.91
		c-1.71,1.65-3.88,2.95-6.48,3.91c-2.61,0.95-5.59,1.43-8.96,1.43C271.41,96.26,266.78,94.88,263.26,92.11"/>
	<path class="st0" d="M89.31,84.77c1.71-0.79,3.02-1.83,3.91-3.1v-4c-2.73-1.84-5.85-2.76-9.34-2.76c-2.23,0-3.94,0.48-5.15,1.43
		c-1.21,0.95-1.81,2.35-1.81,4.19c0,1.72,0.59,3.05,1.76,4c1.18,0.95,2.87,1.43,5.1,1.43C85.75,85.96,87.59,85.57,89.31,84.77
		 M64.95,92.11c-3.53-2.76-5.29-6.62-5.29-11.58c0-5.15,1.7-9.1,5.1-11.87c3.4-2.76,8.28-4.15,14.63-4.15
		c2.48,0,4.96,0.27,7.44,0.81c2.48,0.54,4.61,1.26,6.39,2.14v-0.95c0-4.89-4-7.34-12.01-7.34c-5.59,0-9.01,0.35-13.65,2.51
		c0,0-0.63-4.63-0.78-6.19c-0.34-3.48,2.4-6.08,7-6.92c0.03-0.01,0.07-0.01,0.1-0.02c3.3-0.6,6.73-0.91,10.29-0.91
		c8.52,0,14.95,1.7,19.31,5.1c4.35,3.4,6.53,8.15,6.53,14.25v20.92c0,5.61-1.96,6.91-6.6,6.91h-8.69l-0.44-3.91
		c-1.72,1.65-3.88,2.95-6.48,3.91c-2.61,0.95-5.59,1.43-8.96,1.43C73.1,96.26,68.48,94.88,64.95,92.11"/>
	<path class="st0" d="M133.34,94.83l-0.01-69.13c0,0-3.99,0.26-5.32,0.37c-6.82,0.54-11.43,5.09-11.43,10.42l-0.01,58.35H133.34z"/>
	<path class="st0" d="M232.53,80.29c-2.1,2-4.86,3-8.29,3c-2.54,0-4.83-0.65-6.86-1.95c-2.04-1.3-3.5-3.07-4.39-5.29v-8.1
		c0.89-2.22,2.35-3.99,4.39-5.29c2.03-1.3,4.32-1.95,6.86-1.95c3.43,0,6.2,1.02,8.29,3.05s3.15,4.8,3.15,8.29
		C235.68,75.54,234.63,78.29,232.53,80.29 M249.88,59.32c-2.04-3.72-4.88-6.59-8.53-8.63c-3.65-2.03-7.9-3.05-12.73-3.05
		c-3.05,0-5.96,0.46-8.72,1.38c-2.76,0.92-5.07,2.18-6.91,3.77l0.03-27.09c0,0-4,0.26-5.34,0.37c-6.84,0.54-11.47,5.09-11.47,10.42
		v58.35h15.77l0.44-4.58c4.26,4,9.66,6,16.21,6c4.77,0,8.99-1,12.68-3c3.68-2,6.54-4.83,8.58-8.48c2.03-3.65,3.05-7.9,3.05-12.73
		C252.93,67.28,251.91,63.04,249.88,59.32"/>
	<path class="st0" d="M349.67,83.02c-1.05,0.36-2.17,0.56-3.34,0.56c-3.65,0-5.41-1.92-7.01-4.8c-0.53-0.91-0.82-2.91-0.82-2.91
		V60.08H352l-0.71-6.3c-0.35-3.1-2.98-5.45-6.1-5.45h-6.68V37.6V28.8c0,0-4.04,0.27-5.39,0.37c-6.91,0.54-11.58,5.14-11.58,10.52
		l0.03,9.08l-11.95,0.44v4.54c0,3.49,2.83,6.32,6.31,6.32h5.63v16.17l0.08,2.36c0.06,10.06,8.23,18.19,18.3,18.19
		c3.58,0,6.91-1.03,9.73-2.81V83.02z"/>
</g>
</svg>
