<?xml version="1.0" encoding="UTF-8"?>
<svg width="30px" height="24px" viewBox="0 0 30 24" version="1.1" xmlns="http://www.w3.org/2000/svg" xmlns:xlink="http://www.w3.org/1999/xlink">
    <!-- Generator: Sketch 62 (91390) - https://sketch.com -->
    <title>Shape</title>
    <desc>Created with Sketch.</desc>
    <g id="Symbols" stroke="none" stroke-width="1" fill="none" fill-rule="evenodd">
        <g id="social_media" transform="translate(-48.000000, 0.000000)" fill="#757575">
            <g id="Group">
                <path d="M78,2.85866378 C76.8753862,3.34917296 75.6827114,3.67071288 74.461636,3.81259125 C75.7456106,3.05676348 76.7086606,1.86731012 77.1724794,0.464456048 C75.9621485,1.16754867 74.6405913,1.66459626 73.2631579,1.93478127 C71.3630261,-0.0799323292 68.3275754,-0.580853142 65.8668838,0.714221934 C63.4061921,2.00929701 62.135928,4.77633837 62.7717185,7.45648153 C57.8253689,7.21512884 53.2144493,4.91552141 50.0830691,1.12826188 C48.4568236,3.89834796 49.2942437,7.43923866 51.9949271,9.21223386 C51.0152212,9.17972783 50.0571108,8.91948495 49.1984781,8.45265972 L49.1984781,8.52777212 C49.2062161,11.4134242 51.2694772,13.895468 54.1350666,14.4663462 C53.6078211,14.6067347 53.0641629,14.678077 52.5180723,14.6785387 C52.1284504,14.6787249 51.7397594,14.6409861 51.3576411,14.5658701 C52.1668382,17.0346749 54.4744653,18.7242161 57.1027267,18.7721645 C54.9223246,20.4549805 52.2325617,21.3662352 49.4648066,21.3597867 C48.9753517,21.3594757 48.4863048,21.3318906 48,21.277163 C50.8122817,23.058755 54.0844985,24.0039654 57.4261256,23.9999875 C68.7545973,23.9999875 74.9372226,14.7724292 74.9372226,6.77014198 L74.9181991,5.98615631 C76.1272393,5.13461766 77.1711466,4.07523313 78,2.85866378 Z" id="Shape"></path>
            </g>
        </g>
    </g>
</svg>