<?xml version="1.0" encoding="UTF-8"?>
<svg width="34px" height="24px" viewBox="0 0 34 24" version="1.1" xmlns="http://www.w3.org/2000/svg" xmlns:xlink="http://www.w3.org/1999/xlink">
    <!-- Generator: Sketch 62 (91390) - https://sketch.com -->
    <title>Shape</title>
    <desc>Created with Sketch.</desc>
    <g id="Symbols" stroke="none" stroke-width="1" fill="none" fill-rule="evenodd">
        <g id="social_media" transform="translate(-231.000000, 0.000000)" fill="#757575">
            <g id="Group">
                <path d="M265,5.12702808 C264.997791,3.76403819 264.461199,2.45784599 263.508427,1.49618271 C262.555655,0.534519425 261.264864,-0.00372350582 259.920393,1.93909205e-05 L236.079607,1.93909205e-05 C233.281201,-0.00414031213 231.008179,2.29009241 231,5.12702808 L231,18.8729744 C231.008179,21.7099101 233.281201,24.0041428 236.079607,23.9999831 L259.920393,23.9999831 C261.264789,24.0034762 262.555437,23.4651528 263.508156,22.5035435 C264.460875,21.5419343 264.997545,20.2358873 265,18.8729744 L265,5.12702808 L265,5.12702808 Z M244.598146,17.7998359 L244.598146,4.88740433 L254.312432,11.3431502 L244.598146,17.7998359 Z" id="Shape"></path>
            </g>
        </g>
    </g>
</svg>